<svg xmlns="http://www.w3.org/2000/svg" xmlns:xlink="http://www.w3.org/1999/xlink" viewBox="0,0,256,256" width="100px" height="100px" fill-rule="nonzero"><g fill="#dd4141" fill-rule="nonzero" stroke="none" stroke-width="1" stroke-linecap="butt" stroke-linejoin="miter" stroke-miterlimit="10" stroke-dasharray="" stroke-dashoffset="0" font-family="none" font-weight="none" font-size="none" text-anchor="none" style="mix-blend-mode: normal"><g transform="scale(2.56,2.56)"><path d="M61.91,84h-22.944c-1.539,0 -3.019,-0.728 -3.959,-1.945l-24.966,-32.365c-0.671,-0.87 -1.041,-1.955 -1.041,-3.054v-27.802c0,-0.86 0.524,-1.6 1.334,-1.886c0.811,-0.286 1.683,-0.039 2.223,0.631l50.91,63.165c0.488,0.605 0.583,1.417 0.247,2.119c-0.336,0.701 -1.027,1.137 -1.804,1.137zM11,18.834v27.802c0,0.66 0.222,1.311 0.625,1.833l24.966,32.364c0.564,0.73 1.452,1.167 2.375,1.167h22.944zM79.104,61h-22.031c-0.775,0 -1.465,-0.434 -1.802,-1.132c-0.336,-0.697 -0.246,-1.508 0.237,-2.113l31.926,-40.136c0.537,-0.675 1.41,-0.926 2.225,-0.644c0.815,0.285 1.341,1.025 1.341,1.888v28.709c0,1.15 -0.401,2.275 -1.13,3.166l-6.896,8.428c-0.953,1.166 -2.363,1.834 -3.87,1.834zM57.073,59h22.031c0.904,0 1.75,-0.401 2.322,-1.1l6.896,-8.428c0.437,-0.535 0.678,-1.209 0.678,-1.9v-28.709z"></path></g></g></svg>